<svg width="35" height="42" viewBox="0 0 35 42" fill="none" xmlns="http://www.w3.org/2000/svg">
<path d="M17.5 0C15.2019 0 12.9262 0.535843 10.803 1.57694C8.67984 2.61803 6.75066 4.14398 5.12563 6.06767C1.84374 9.95273 0 15.222 0 20.7163C0 26.2106 1.84374 31.4799 5.12563 35.365C6.75066 37.2887 8.67984 38.8146 10.803 39.8557C12.9262 40.8968 15.2019 41.4326 17.5 41.4326C22.1413 41.4326 26.5925 39.25 29.8744 35.365C33.1563 31.4799 35 26.2106 35 20.7163C35 17.9958 34.5474 15.3019 33.6679 12.7885C32.7884 10.2751 31.4994 7.99136 29.8744 6.06767C28.2493 4.14398 26.3202 2.61803 24.197 1.57694C22.0738 0.535843 19.7981 0 17.5 0ZM24.85 29.4172L15.75 22.7879V10.3582H18.375V21.1306L26.25 26.724L24.85 29.4172Z" fill="black" fill-opacity="0.8"/>
</svg>
