<svg width="35" height="45" viewBox="0 0 35 45" fill="none" xmlns="http://www.w3.org/2000/svg">
<path d="M17.5 0.0186092C15.1753 -0.0919179 12.8535 0.29082 10.6832 1.14232C8.51287 1.99382 6.54183 3.29533 4.89624 4.96353C3.25066 6.63172 1.9668 8.62985 1.12684 10.83C0.286878 13.0302 -0.0906719 15.3839 0.0183569 17.7405C0.0183569 23.3229 4.38877 28.8166 6.57397 31.0319C8.75918 33.2471 17.5 44.3233 17.5 44.3233C17.5 44.3233 26.2408 33.2471 28.426 31.0319C30.6112 28.8166 34.9816 23.3229 34.9816 17.7405C35.0907 15.3839 34.7131 13.0302 33.8732 10.83C33.0332 8.62985 31.7493 6.63172 30.1038 4.96353C28.4582 3.29533 26.4871 1.99382 24.3168 1.14232C22.1465 0.29082 19.8246 -0.0919179 17.5 0.0186092ZM17.5 24.94C16.0954 24.94 14.7223 24.5177 13.5544 23.7267C12.3865 22.9356 11.4762 21.8111 10.9387 20.4956C10.4012 19.1801 10.2605 17.7325 10.5345 16.3359C10.8086 14.9394 11.485 13.6565 12.4782 12.6497C13.4714 11.6428 14.7368 10.9571 16.1145 10.6793C17.4921 10.4015 18.9201 10.5441 20.2178 11.089C21.5155 11.6339 22.6247 12.5567 23.405 13.7406C24.1854 14.9246 24.6019 16.3165 24.6019 17.7405C24.6019 18.6859 24.4182 19.6221 24.0613 20.4956C23.7044 21.3691 23.1813 22.1628 22.5218 22.8313C21.8623 23.4998 21.0794 24.0301 20.2178 24.392C19.3561 24.7538 18.4326 24.94 17.5 24.94Z" fill="black" fill-opacity="0.8"/>
</svg>
