<svg width="35" height="45" viewBox="0 0 35 45" fill="none" xmlns="http://www.w3.org/2000/svg">
<path d="M7.03889 19.1821C9.83889 26.1507 14.35 31.8635 19.8528 35.4094L24.1306 29.9921C24.675 29.3026 25.4333 29.1056 26.1139 29.3765C28.2917 30.2876 30.625 30.7801 33.0556 30.7801C33.5713 30.7801 34.0658 31.0395 34.4305 31.5013C34.7951 31.9631 35 32.5894 35 33.2425V41.8609C35 42.5139 34.7951 43.1403 34.4305 43.6021C34.0658 44.0639 33.5713 44.3233 33.0556 44.3233C24.2887 44.3233 15.8809 39.9129 9.68175 32.0625C3.48263 24.2121 0 13.5646 0 2.4624C0 1.80933 0.20486 1.18301 0.569515 0.721221C0.934169 0.259431 1.42875 0 1.94444 0H8.75C9.2657 0 9.76027 0.259431 10.1249 0.721221C10.4896 1.18301 10.6944 1.80933 10.6944 2.4624C10.6944 5.54041 11.0833 8.4953 11.8028 11.2532C12.0167 12.115 11.8611 13.0754 11.3167 13.7648L7.03889 19.1821Z" fill="black" fill-opacity="0.8"/>
</svg>
