<svg width="33" height="31" viewBox="0 0 33 31" fill="none" xmlns="http://www.w3.org/2000/svg">
<g clip-path="url(#clip0_247_244)">
<path d="M33 29.5469V11.1406C33 11.0122 32.9489 10.889 32.8579 10.7981C32.7668 10.7073 32.6434 10.6562 32.5147 10.6562C32.386 10.6562 32.2626 10.7073 32.1716 10.7981C32.0805 10.889 32.0294 11.0122 32.0294 11.1406V29.5469C32.0294 29.6753 31.9783 29.7985 31.8873 29.8894C31.7963 29.9802 31.6728 30.0312 31.5441 30.0312H1.45588C1.32717 30.0312 1.20374 29.9802 1.11273 29.8894C1.02172 29.7985 0.970588 29.6753 0.970588 29.5469V11.1406C0.970588 11.0122 0.919459 10.889 0.828449 10.7981C0.737439 10.7073 0.614002 10.6562 0.485294 10.6562C0.356586 10.6562 0.23315 10.7073 0.142139 10.7981C0.0511291 10.889 0 11.0122 0 11.1406L0 29.5469C0 30.348 0.653206 31 1.45588 31H31.5441C32.3468 31 33 30.348 33 29.5469Z" fill="black"/>
<path d="M4.36765 22.2812C4.23894 22.2812 4.1155 22.3323 4.02449 22.4231C3.93348 22.514 3.88235 22.6372 3.88235 22.7656C3.88235 22.8941 3.93348 23.0173 4.02449 23.1081C4.1155 23.199 4.23894 23.25 4.36765 23.25H5.82353V26.6406C5.82353 26.7691 5.87466 26.8923 5.96567 26.9831C6.05668 27.074 6.18012 27.125 6.30882 27.125C6.43753 27.125 6.56097 27.074 6.65198 26.9831C6.74299 26.8923 6.79412 26.7691 6.79412 26.6406V23.25H12.6176V26.6406C12.6176 26.7691 12.6688 26.8923 12.7598 26.9831C12.8508 27.074 12.9742 27.125 13.1029 27.125C13.2316 27.125 13.3551 27.074 13.4461 26.9831C13.5371 26.8923 13.5882 26.7691 13.5882 26.6406V23.25H19.4118V26.6406C19.4118 26.7691 19.4629 26.8923 19.5539 26.9831C19.6449 27.074 19.7684 27.125 19.8971 27.125C20.0258 27.125 20.1492 27.074 20.2402 26.9831C20.3312 26.8923 20.3824 26.7691 20.3824 26.6406V23.25H26.2059V26.6406C26.2059 26.7691 26.257 26.8923 26.348 26.9831C26.439 27.074 26.5625 27.125 26.6912 27.125C26.8199 27.125 26.9433 27.074 27.0343 26.9831C27.1253 26.8923 27.1765 26.7691 27.1765 26.6406V23.25H28.6324C28.7611 23.25 28.8845 23.199 28.9755 23.1081C29.0665 23.0173 29.1176 22.8941 29.1176 22.7656C29.1176 22.6372 29.0665 22.514 28.9755 22.4231C28.8845 22.3323 28.7611 22.2812 28.6324 22.2812H27.1765V17.4375H28.6324C28.7611 17.4375 28.8845 17.3865 28.9755 17.2956C29.0665 17.2048 29.1176 17.0816 29.1176 16.9531C29.1176 16.8247 29.0665 16.7015 28.9755 16.6106C28.8845 16.5198 28.7611 16.4688 28.6324 16.4688H27.1765V12.1094C27.1765 11.9809 27.1253 11.8577 27.0343 11.7669C26.9433 11.676 26.8199 11.625 26.6912 11.625C26.5625 11.625 26.439 11.676 26.348 11.7669C26.257 11.8577 26.2059 11.9809 26.2059 12.1094V16.4688H20.3824V12.1094C20.3824 11.9809 20.3312 11.8577 20.2402 11.7669C20.1492 11.676 20.0258 11.625 19.8971 11.625C19.7684 11.625 19.6449 11.676 19.5539 11.7669C19.4629 11.8577 19.4118 11.9809 19.4118 12.1094V16.4688H13.5882V12.1094C13.5882 11.9809 13.5371 11.8577 13.4461 11.7669C13.3551 11.676 13.2316 11.625 13.1029 11.625C12.9742 11.625 12.8508 11.676 12.7598 11.7669C12.6688 11.8577 12.6176 11.9809 12.6176 12.1094V16.4688H6.79412V12.1094C6.79412 11.9809 6.74299 11.8577 6.65198 11.7669C6.56097 11.676 6.43753 11.625 6.30882 11.625C6.18012 11.625 6.05668 11.676 5.96567 11.7669C5.87466 11.8577 5.82353 11.9809 5.82353 12.1094V16.4688H4.36765C4.23894 16.4688 4.1155 16.5198 4.02449 16.6106C3.93348 16.7015 3.88235 16.8247 3.88235 16.9531C3.88235 17.0816 3.93348 17.2048 4.02449 17.2956C4.1155 17.3865 4.23894 17.4375 4.36765 17.4375H5.82353V22.2812H4.36765ZM26.2059 17.4375V22.2812H20.3824V17.4375H26.2059ZM19.4118 17.4375V22.2812H13.5882V17.4375H19.4118ZM6.79412 17.4375H12.6176V22.2812H6.79412V17.4375ZM27.6618 2.90625H31.7868C31.8712 2.90625 32.0294 2.90625 32.0294 3.39062V7.75H0.970588V3.39062C0.970588 3.26216 1.02172 3.13896 1.11273 3.04812C1.20374 2.95728 1.32717 2.90625 1.45588 2.90625H5.33823C5.46694 2.90625 5.59038 2.85522 5.68139 2.76438C5.7724 2.67354 5.82353 2.55034 5.82353 2.42188C5.82353 2.29341 5.7724 2.17021 5.68139 2.07937C5.59038 1.98853 5.46694 1.9375 5.33823 1.9375H1.45588C0.653206 1.9375 0 2.58947 0 3.39062V8.23438C0 8.36284 0.0511291 8.48604 0.142139 8.57688C0.23315 8.66772 0.356586 8.71875 0.485294 8.71875H32.5147C32.6434 8.71875 32.7668 8.66772 32.8579 8.57688C32.9489 8.48604 33 8.36284 33 8.23438V3.39062C33 2.31919 32.373 1.9375 31.7868 1.9375H27.6618C27.5331 1.9375 27.4096 1.98853 27.3186 2.07937C27.2276 2.17021 27.1765 2.29341 27.1765 2.42188C27.1765 2.55034 27.2276 2.67354 27.3186 2.76438C27.4096 2.85522 27.5331 2.90625 27.6618 2.90625Z" fill="black"/>
<path d="M21.8382 2.90625C21.9669 2.90625 22.0903 2.85522 22.1813 2.76438C22.2723 2.67354 22.3235 2.55034 22.3235 2.42188C22.3235 2.29341 22.2723 2.17021 22.1813 2.07937C22.0903 1.98853 21.9669 1.9375 21.8382 1.9375H11.1617C11.033 1.9375 10.9096 1.98853 10.8186 2.07937C10.7275 2.17021 10.6764 2.29341 10.6764 2.42188C10.6764 2.55034 10.7275 2.67354 10.8186 2.76438C10.9096 2.85522 11.033 2.90625 11.1617 2.90625H21.8382ZM8.73524 4.35938V0.484375C8.73524 0.355911 8.68411 0.232708 8.5931 0.14187C8.50209 0.0510322 8.37865 0 8.24994 0C8.12123 0 7.9978 0.0510322 7.90679 0.14187C7.81578 0.232708 7.76465 0.355911 7.76465 0.484375V4.35938C7.76465 4.48784 7.81578 4.61104 7.90679 4.70188C7.9978 4.79272 8.12123 4.84375 8.24994 4.84375C8.37865 4.84375 8.50209 4.79272 8.5931 4.70188C8.68411 4.61104 8.73524 4.48784 8.73524 4.35938ZM24.7499 4.84375C24.8787 4.84375 25.0021 4.79272 25.0931 4.70188C25.1841 4.61104 25.2352 4.48784 25.2352 4.35938V0.484375C25.2352 0.355911 25.1841 0.232708 25.0931 0.14187C25.0021 0.0510322 24.8787 0 24.7499 0C24.6212 0 24.4978 0.0510322 24.4068 0.14187C24.3158 0.232708 24.2646 0.355911 24.2646 0.484375V4.35938C24.2646 4.48784 24.3158 4.61104 24.4068 4.70188C24.4978 4.79272 24.6212 4.84375 24.7499 4.84375Z" fill="black"/>
</g>
<defs>
<clipPath id="clip0_247_244">
<rect width="33" height="31" fill="white"/>
</clipPath>
</defs>
</svg>
