<svg width="24" height="28" viewBox="0 0 24 28" fill="none" xmlns="http://www.w3.org/2000/svg">
<path d="M11.625 13.5625C13.1666 13.5625 14.645 12.9501 15.7351 11.8601C16.8251 10.77 17.4375 9.29157 17.4375 7.75C17.4375 6.20843 16.8251 4.73 15.7351 3.63994C14.645 2.54989 13.1666 1.9375 11.625 1.9375C10.0834 1.9375 8.605 2.54989 7.51494 3.63994C6.42489 4.73 5.8125 6.20843 5.8125 7.75C5.8125 9.29157 6.42489 10.77 7.51494 11.8601C8.605 12.9501 10.0834 13.5625 11.625 13.5625ZM11.625 15.5C9.56957 15.5 7.59833 14.6835 6.14492 13.2301C4.69152 11.7767 3.875 9.80543 3.875 7.75C3.875 5.69457 4.69152 3.72333 6.14492 2.26992C7.59833 0.816516 9.56957 0 11.625 0C13.6804 0 15.6517 0.816516 17.1051 2.26992C18.5585 3.72333 19.375 5.69457 19.375 7.75C19.375 9.80543 18.5585 11.7767 17.1051 13.2301C15.6517 14.6835 13.6804 15.5 11.625 15.5Z" fill="black"/>
<path d="M11.625 13.5625C11.8819 13.5625 12.1283 13.6646 12.31 13.8462C12.4917 14.0279 12.5938 14.2743 12.5938 14.5312V22.2812C12.5938 22.5382 12.4917 22.7846 12.31 22.9663C12.1283 23.1479 11.8819 23.25 11.625 23.25C11.3681 23.25 11.1217 23.1479 10.94 22.9663C10.7583 22.7846 10.6562 22.5382 10.6562 22.2812V14.5312C10.6562 14.2743 10.7583 14.0279 10.94 13.8462C11.1217 13.6646 11.3681 13.5625 11.625 13.5625Z" fill="black"/>
<path d="M7.75 17.7126V19.6792C4.29156 20.2333 1.9375 21.4307 1.9375 22.2813C1.9375 23.4225 6.17288 25.1875 11.625 25.1875C17.0771 25.1875 21.3125 23.4225 21.3125 22.2813C21.3125 21.4288 18.9584 20.2333 15.5 19.6792V17.7126C20.0144 18.3772 23.25 20.1733 23.25 22.2813C23.25 24.955 18.0459 27.125 11.625 27.125C5.20413 27.125 0 24.955 0 22.2813C0 20.1713 3.23563 18.3772 7.75 17.7126Z" fill="black"/>
</svg>
