<svg width="77" height="33" viewBox="0 0 77 33" fill="none" xmlns="http://www.w3.org/2000/svg">
<path d="M0.808203 32C0.508203 32 0.358203 31.85 0.358203 31.55V1.4C0.358203 1.1 0.508203 0.949997 0.808203 0.949997C1.1382 0.949997 1.3032 1.1 1.3032 1.4V31.055H11.4732C11.7732 31.055 11.9232 31.205 11.9232 31.505C11.9232 31.835 11.7732 32 11.4732 32H0.808203ZM19.2438 32.225C16.7538 32.225 15.5088 30.56 15.5088 27.23V10.985C15.5088 10.685 15.6738 10.535 16.0038 10.535C16.3038 10.535 16.4538 10.685 16.4538 10.985V27.23C16.4538 28.7 16.6938 29.75 17.1738 30.38C17.6538 30.98 18.3438 31.28 19.2438 31.28C20.1738 31.28 20.9838 31.01 21.6738 30.47C22.3938 29.9 22.9788 29.195 23.4288 28.355V10.985C23.4288 10.685 23.5938 10.535 23.9238 10.535C24.2238 10.535 24.3738 10.685 24.3738 10.985V31.55C24.3738 31.85 24.2238 32 23.9238 32C23.5938 32 23.4288 31.85 23.4288 31.55V29.75C22.8288 30.65 22.1838 31.295 21.4938 31.685C20.8038 32.045 20.0538 32.225 19.2438 32.225ZM30.2076 32C29.9076 32 29.7576 31.85 29.7576 31.55V10.985C29.7576 10.685 29.9076 10.535 30.2076 10.535C30.2976 10.535 30.4476 10.595 30.6576 10.715C33.2376 12.185 35.1726 13.895 36.4626 15.845C37.7226 13.895 39.6426 12.185 42.2226 10.715C42.4326 10.595 42.5826 10.535 42.6726 10.535C42.9726 10.535 43.1226 10.685 43.1226 10.985V31.55C43.1226 31.85 42.9726 32 42.6726 32C42.3426 32 42.1776 31.85 42.1776 31.55V11.84C39.7776 13.34 38.0526 14.99 37.0026 16.79C37.7526 18.26 38.1276 19.805 38.1276 21.425C38.1276 22.385 37.9776 23.24 37.6776 23.99C37.4076 24.71 36.9876 25.07 36.4176 25.07C35.8776 25.07 35.4576 24.71 35.1576 23.99C34.8876 23.24 34.7526 22.385 34.7526 21.425C34.7526 19.805 35.1276 18.26 35.8776 16.79C34.8276 14.99 33.1026 13.34 30.7026 11.84V31.55C30.7026 31.85 30.5376 32 30.2076 32ZM35.6976 21.425C35.6976 22.085 35.7726 22.7 35.9226 23.27C36.1026 23.81 36.2676 24.08 36.4176 24.08C36.5676 24.08 36.7326 23.81 36.9126 23.27C37.0926 22.7 37.1826 22.085 37.1826 21.425C37.1826 20.165 36.9426 18.98 36.4626 17.87C35.9526 18.98 35.6976 20.165 35.6976 21.425ZM48.5328 8.105C48.2328 8.105 48.0828 7.955 48.0828 7.655V3.2C48.0828 2.9 48.2328 2.75 48.5328 2.75C48.8628 2.75 49.0278 2.9 49.0278 3.2V7.655C49.0278 7.955 48.8628 8.105 48.5328 8.105ZM48.5328 32C48.2328 32 48.0828 31.85 48.0828 31.55V10.985C48.0828 10.685 48.2328 10.535 48.5328 10.535C48.8628 10.535 49.0278 10.685 49.0278 10.985V31.55C49.0278 31.85 48.8628 32 48.5328 32ZM54.8609 32C54.5609 32 54.4109 31.85 54.4109 31.55V10.985C54.4109 10.685 54.5609 10.535 54.8609 10.535C55.1909 10.535 55.3559 10.685 55.3559 10.985V12.785C55.9559 11.885 56.6009 11.255 57.2909 10.895C57.9809 10.505 58.7309 10.31 59.5409 10.31C62.0309 10.31 63.2759 11.975 63.2759 15.305V31.55C63.2759 31.85 63.1109 32 62.7809 32C62.4809 32 62.3309 31.85 62.3309 31.55V15.305C62.3309 13.835 62.0909 12.8 61.6109 12.2C61.1309 11.57 60.4409 11.255 59.5409 11.255C58.6109 11.255 57.7859 11.54 57.0659 12.11C56.3759 12.65 55.8059 13.34 55.3559 14.18V31.55C55.3559 31.85 55.1909 32 54.8609 32ZM72.5298 32.225C71.5098 32.225 70.5948 31.76 69.7848 30.83C69.0048 29.87 68.3898 28.565 67.9398 26.915C67.5198 25.265 67.3098 23.375 67.3098 21.245C67.3098 19.115 67.5198 17.225 67.9398 15.575C68.3898 13.925 68.9898 12.635 69.7398 11.705C70.5198 10.775 71.4198 10.31 72.4398 10.31C73.3698 10.31 74.1648 10.7 74.8248 11.48C75.5148 12.23 76.0398 13.28 76.3998 14.63C76.7898 15.95 76.9848 17.465 76.9848 19.175C76.9848 19.655 76.7448 19.895 76.2648 19.895H68.3448C68.3148 20.345 68.2998 20.795 68.2998 21.245C68.2998 23.165 68.4798 24.89 68.8398 26.42C69.1998 27.92 69.6948 29.105 70.3248 29.975C70.9848 30.845 71.7198 31.28 72.5298 31.28C73.3098 31.28 73.9698 30.95 74.5098 30.29C75.0798 29.63 75.5298 28.76 75.8598 27.68C75.9498 27.41 76.1148 27.275 76.3548 27.275C76.5648 27.275 76.6998 27.365 76.7598 27.545C76.8198 27.695 76.8198 27.86 76.7598 28.04C76.3398 29.33 75.7848 30.35 75.0948 31.1C74.4048 31.85 73.5498 32.225 72.5298 32.225ZM72.4398 11.255C71.4198 11.255 70.5348 11.975 69.7848 13.415C69.0648 14.855 68.5998 16.7 68.3898 18.95H76.0398C75.9798 16.76 75.6198 14.93 74.9598 13.46C74.3298 11.99 73.4898 11.255 72.4398 11.255Z" fill="black"/>
</svg>
