<svg width="31" height="31" viewBox="0 0 31 31" fill="none" xmlns="http://www.w3.org/2000/svg">
<path d="M14.8543 3.875C18.1088 3.875 21.2299 5.16782 23.5311 7.46904C25.8323 9.77027 27.1252 12.8914 27.1252 16.1458C27.1252 19.4003 25.8323 22.5214 23.5311 24.8226C21.2299 27.1238 18.1088 28.4167 14.8543 28.4167C11.5999 28.4167 8.47877 27.1238 6.17754 24.8226C3.87631 22.5214 2.5835 19.4003 2.5835 16.1458C2.5835 12.8914 3.87631 9.77027 6.17754 7.46904C8.47877 5.16782 11.5999 3.875 14.8543 3.875ZM14.8543 5.16667C11.9425 5.16667 9.14988 6.3234 7.09089 8.38239C5.03189 10.4414 3.87516 13.234 3.87516 16.1458C3.87516 19.0577 5.03189 21.8503 7.09089 23.9093C9.14988 25.9683 11.9425 27.125 14.8543 27.125C16.2961 27.125 17.7238 26.841 19.0559 26.2893C20.3879 25.7375 21.5983 24.9288 22.6178 23.9093C23.6373 22.8898 24.446 21.6794 24.9978 20.3474C25.5495 19.0153 25.8335 17.5876 25.8335 16.1458C25.8335 13.234 24.6768 10.4414 22.6178 8.38239C20.5588 6.3234 17.7662 5.16667 14.8543 5.16667ZM14.2085 9.04167H15.5002V16.0425L21.571 19.5429L20.9252 20.6667L14.2085 16.7917V9.04167Z" fill="black"/>
</svg>
